/* XPM */
static char * tabSession_config_xpm[] = {
"16 16 128 2",
"  	c None",
". 	c #A9A6A2",
"+ 	c #BCBAB7",
"@ 	c #989690",
"# 	c #E3E1DE",
"$ 	c #EEEDEA",
"% 	c #EFEEEC",
"& 	c #EFEEEB",
"* 	c #EDECEA",
"= 	c #B9B6B3",
"- 	c #94928E",
"; 	c #E9E8E5",
"> 	c #EBEAE6",
", 	c #EDEBE8",
"' 	c #EAE8E5",
") 	c #D1D0CF",
"! 	c #CECECE",
"~ 	c #CCCBCB",
"{ 	c #E0DEDC",
"] 	c #ECEBE7",
"^ 	c #E9E8E4",
"/ 	c #BFBEBA",
"( 	c #989490",
"_ 	c #E7E5E2",
": 	c #E9E7E3",
"< 	c #E4E2DF",
"[ 	c #BEBFC1",
"} 	c #D0DCE2",
"| 	c #C5D6DD",
"1 	c #D3E3EA",
"2 	c #C4CBD0",
"3 	c #E8E6E3",
"4 	c #E6E4E0",
"5 	c #C1BFBC",
"6 	c #9C9A94",
"7 	c #E5E3E0",
"8 	c #E4E2DD",
"9 	c #E5E3DF",
"0 	c #C2C1C1",
"a 	c #D3E1E7",
"b 	c #CDDFE7",
"c 	c #C0C9CE",
"d 	c #CCDFE7",
"e 	c #C7DAE3",
"f 	c #C7CCCF",
"g 	c #DCDAD7",
"h 	c #E5E3DE",
"i 	c #E2E0DB",
"j 	c #C3C1BE",
"k 	c #9E9C98",
"l 	c #E3E0DD",
"m 	c #DFDCD7",
"n 	c #E0DED9",
"o 	c #B7BEC3",
"p 	c #CEE0E8",
"q 	c #D1E3EC",
"r 	c #89959D",
"s 	c #A8C0CC",
"t 	c #B9D0DD",
"u 	c #C8D7DF",
"v 	c #BDBDBD",
"w 	c #DFDDD8",
"x 	c #DDDBD6",
"y 	c #C5C2BF",
"z 	c #A09E9A",
"A 	c #DDDBD8",
"B 	c #D4D2CC",
"C 	c #D6D3CE",
"D 	c #A7B3BC",
"E 	c #C8D9E1",
"F 	c #B0CCDA",
"G 	c #889BA7",
"H 	c #A1A9AE",
"I 	c #DBE3E8",
"J 	c #C6CFD5",
"K 	c #AAACB0",
"L 	c #D5D3CD",
"M 	c #D3D0CA",
"N 	c #C6C4C0",
"O 	c #A4A29E",
"P 	c #DDDBD7",
"Q 	c #D3D1CB",
"R 	c #8A959F",
"S 	c #C9DCE4",
"T 	c #9EBAC9",
"U 	c #CDE0EA",
"V 	c #EAF2F6",
"W 	c #ECEFF2",
"X 	c #C8CFD5",
"Y 	c #B0B1B1",
"Z 	c #D2CFC9",
"` 	c #C8C5C2",
" .	c #A6A4A0",
"..	c #D5D2CB",
"+.	c #ADAEAD",
"@.	c #97A9B7",
"#.	c #AFCAD7",
"$.	c #B2C5CF",
"%.	c #EFF3F4",
"&.	c #D3D9DF",
"*.	c #7C8690",
"=.	c #D3D0C9",
"-.	c #D4D1CB",
";.	c #C9C7C3",
">.	c #AAA8A4",
",.	c #D4D1CA",
"'.	c #D5D2CC",
").	c #AEAFAC",
"!.	c #889098",
"~.	c #929EA8",
"{.	c #929BA4",
"].	c #8A9196",
"^.	c #CECCC6",
"/.	c #CAC8C5",
"(.	c #ACA8A4",
"_.	c #D6D2CC",
":.	c #D1CDC7",
"<.	c #BCB9B4",
"[.	c #C6C3BD",
"}.	c #D3CFC9",
"|.	c #CBC9C6",
"1.	c #9D9C99",
"2.	c #DEDBD7",
"3.	c #D7D3CD",
"4.	c #D6D3CC",
"5.	c #CCCAC6",
"6.	c #808080",
"7.	c #D8D4CD",
"                                ",
"  . + + + + + + + + + + + +     ",
"@ # $ % % % % % % % % % & * =   ",
"- ; > , , ' ) ! ~ { , , ] ^ /   ",
"( _ _ : < [ } | 1 2 ) : 3 4 5   ",
"6 7 8 9 0 a b c d e f g h i j   ",
"k l m n o p q r s t u v w x y   ",
"z A B C D E F G H I J K L M N   ",
"O P Q B R S T U V W X Y B Z `   ",
" .P M ..+.@.#.$.%.&.*.=.-.Z ;.  ",
">.P ,.'.'.).!.~.{.].^.'...Z /.  ",
"(.x ,._._._.:.<.[._._._...}.|.  ",
"1.2...3.3.3.3.3.3.3.3.3.4.,.5.6.",
"7.7.7.7.7.7.7.7.7.7.7.7.7.7.7.7.",
"6.6.6.6.6.6.6.6.6.6.6.6.6.6.6.6.",
"                                "};
